<svg width="366" height="145" viewBox="0 0 366 145" fill="none" xmlns="http://www.w3.org/2000/svg">
<path d="M25.5 93.6663L47.5836 131.916H3.41635L25.5 93.6663Z" fill="white" fill-opacity="0.8"/>
<path d="M50.5 46.6663L72.5836 84.9163H28.4164L50.5 46.6663Z" fill="white"/>
<path d="M75.8337 -7.65408e-07L97.9174 38.25L53.7501 38.25L75.8337 -7.65408e-07Z" fill="white" fill-opacity="0.5"/>
<path d="M53.75 42.7499L97.9173 42.7499L75.8337 80.9999L53.75 42.7499Z" fill="white"/>
<path d="M101.5 46.6663L123.584 84.9163H79.4164L101.5 46.6663Z" fill="white" fill-opacity="0.7"/>
<path d="M28.75 89.7499L72.9173 89.7499L50.8336 128L28.75 89.7499Z" fill="white" fill-opacity="0.65"/>
<path d="M79.75 89.7499L123.917 89.7499L101.834 128L79.75 89.7499Z" fill="white"/>
<path d="M127.5 93.6663L149.584 131.916H105.416L127.5 93.6663Z" fill="white" fill-opacity="0.8"/>
<path d="M76.5 93.6663L98.5836 131.916H54.4164L76.5 93.6663Z" fill="white"/>
<path d="M161.064 26.8663H170.6L177.896 71.6663H170.856L169.576 62.7703V62.8983H161.576L160.296 71.6663H153.768L161.064 26.8663ZM168.744 56.8183L165.608 34.6743H165.48L162.408 56.8183H168.744ZM181.312 26.8663H190.144L196.992 53.6823H197.12V26.8663H203.392V71.6663H196.16L187.712 38.9623H187.584V71.6663H181.312V26.8663ZM215.088 52.5943L206.576 26.8663H214.064L218.864 43.3143H218.992L223.792 26.8663H230.64L222.128 52.5943V71.6663H215.088V52.5943ZM232.148 26.8663H238.932L242.068 61.2983H242.196L245.524 26.8663H253.204L256.532 61.2983H256.66L259.796 26.8663H265.876L261.332 71.6663H252.564L249.364 41.4583H249.236L246.036 71.6663H236.692L232.148 26.8663ZM269.437 26.8663H276.477V45.1063H284.029V26.8663H291.069V71.6663H284.029V51.5063H276.477V71.6663H269.437V26.8663ZM296.312 26.8663H315.512V33.2663H303.352V45.1063H313.016V51.5063H303.352V65.2663H315.512V71.6663H296.312V26.8663ZM319.562 26.8663H329.994C333.62 26.8663 336.266 27.7196 337.93 29.4263C339.594 31.0903 340.426 33.6716 340.426 37.1703V39.9223C340.426 44.573 338.89 47.517 335.818 48.7543V48.8823C337.524 49.3943 338.719 50.4396 339.402 52.0183C340.127 53.597 340.49 55.709 340.49 58.3543V66.2263C340.49 67.5063 340.532 68.5516 340.618 69.3623C340.703 70.1303 340.916 70.8983 341.258 71.6663H334.09C333.834 70.941 333.663 70.2583 333.578 69.6183C333.492 68.9783 333.45 67.8263 333.45 66.1623V57.9703C333.45 55.9223 333.108 54.493 332.426 53.6823C331.786 52.8716 330.655 52.4663 329.034 52.4663H326.602V71.6663H319.562V26.8663ZM329.162 46.0663C330.57 46.0663 331.615 45.7036 332.298 44.9783C333.023 44.253 333.385 43.037 333.385 41.3303V37.8743C333.385 36.253 333.087 35.0796 332.49 34.3543C331.935 33.629 331.039 33.2663 329.802 33.2663H326.602V46.0663H329.162ZM345.374 26.8663H364.574V33.2663H352.414V45.1063H362.078V51.5063H352.414V65.2663H364.574V71.6663H345.374V26.8663ZM155.624 76.8663H174.248V83.2663H162.664V95.7463H171.752V102.146H162.664V121.666H155.624V76.8663ZM177.624 76.8663H184.664V121.666H177.624V76.8663ZM195.441 83.2663H188.081V76.8663H209.841V83.2663H202.481V121.666H195.441V83.2663ZM213.249 76.8663H222.081L228.929 103.682H229.057V76.8663H235.329V121.666H228.097L219.649 88.9623H219.521V121.666H213.249V76.8663ZM240.562 76.8663H259.762V83.2663H247.602V95.1063H257.266V101.506H247.602V115.266H259.762V121.666H240.562V76.8663ZM273.089 122.306C269.675 122.306 267.094 121.346 265.345 119.426C263.595 117.464 262.721 114.669 262.721 111.042V108.482H269.377V111.554C269.377 114.456 270.593 115.906 273.025 115.906C274.219 115.906 275.115 115.565 275.713 114.882C276.353 114.157 276.673 113.005 276.673 111.426C276.673 109.549 276.246 107.906 275.393 106.498C274.539 105.048 272.961 103.32 270.657 101.314C267.755 98.7543 265.729 96.4503 264.577 94.4023C263.425 92.3116 262.849 89.965 262.849 87.3623C262.849 83.821 263.745 81.0903 265.536 79.1703C267.329 77.2076 269.931 76.2263 273.345 76.2263C276.715 76.2263 279.254 77.2076 280.961 79.1703C282.71 81.0903 283.585 83.8636 283.585 87.4903V89.3463H276.929V87.0423C276.929 85.5063 276.63 84.397 276.033 83.7143C275.435 82.989 274.561 82.6263 273.409 82.6263C271.062 82.6263 269.889 84.0556 269.889 86.9143C269.889 88.5356 270.315 90.0503 271.169 91.4583C272.065 92.8663 273.665 94.573 275.969 96.5783C278.913 99.1383 280.939 101.464 282.049 103.554C283.158 105.645 283.713 108.098 283.713 110.914C283.713 114.584 282.795 117.4 280.961 119.362C279.169 121.325 276.545 122.306 273.089 122.306ZM296.901 122.306C293.488 122.306 290.906 121.346 289.157 119.426C287.408 117.464 286.533 114.669 286.533 111.042V108.482H293.189V111.554C293.189 114.456 294.405 115.906 296.837 115.906C298.032 115.906 298.928 115.565 299.525 114.882C300.165 114.157 300.485 113.005 300.485 111.426C300.485 109.549 300.058 107.906 299.205 106.498C298.352 105.048 296.773 103.32 294.469 101.314C291.568 98.7543 289.541 96.4503 288.389 94.4023C287.237 92.3116 286.661 89.965 286.661 87.3623C286.661 83.821 287.557 81.0903 289.349 79.1703C291.141 77.2076 293.744 76.2263 297.157 76.2263C300.528 76.2263 303.066 77.2076 304.773 79.1703C306.522 81.0903 307.397 83.8636 307.397 87.4903V89.3463H300.741V87.0423C300.741 85.5063 300.442 84.397 299.845 83.7143C299.248 82.989 298.373 82.6263 297.221 82.6263C294.874 82.6263 293.701 84.0556 293.701 86.9143C293.701 88.5356 294.128 90.0503 294.981 91.4583C295.877 92.8663 297.477 94.573 299.781 96.5783C302.725 99.1383 304.752 101.464 305.861 103.554C306.97 105.645 307.525 108.098 307.525 110.914C307.525 114.584 306.608 117.4 304.773 119.362C302.981 121.325 300.357 122.306 296.901 122.306Z" fill="white"/>
</svg>
